<svg width="98" height="19" viewBox="0 0 98 19" fill="none" xmlns="http://www.w3.org/2000/svg">
<path d="M4.52557 18H0.571023L6.59659 0.545454H11.3523L17.3693 18H13.4148L9.04261 4.53409H8.90625L4.52557 18ZM4.27841 11.1392H13.6193V14.0199H4.27841V11.1392ZM20.4439 0.545454L24.6626 13.8068H24.8246L29.0518 0.545454H33.1428L27.1257 18H22.37L16.3445 0.545454H20.4439ZM35.9318 18H31.9773L38.0028 0.545454H42.7585L48.7756 18H44.821L40.4489 4.53409H40.3125L35.9318 18ZM35.6847 11.1392H45.0256V14.0199H35.6847V11.1392ZM50.8764 18V0.545454H54.5668V14.9574H62.0497V18H50.8764ZM79.8537 9.27273C79.8537 11.1761 79.4929 12.7955 78.7713 14.1307C78.0554 15.4659 77.0781 16.4858 75.8395 17.1903C74.6065 17.8892 73.2202 18.2386 71.6804 18.2386C70.1293 18.2386 68.7372 17.8864 67.5043 17.1818C66.2713 16.4773 65.2969 15.4574 64.581 14.1222C63.8651 12.7869 63.5071 11.1705 63.5071 9.27273C63.5071 7.36932 63.8651 5.75 64.581 4.41477C65.2969 3.07955 66.2713 2.0625 67.5043 1.36364C68.7372 0.659091 70.1293 0.306818 71.6804 0.306818C73.2202 0.306818 74.6065 0.659091 75.8395 1.36364C77.0781 2.0625 78.0554 3.07955 78.7713 4.41477C79.4929 5.75 79.8537 7.36932 79.8537 9.27273ZM76.1122 9.27273C76.1122 8.03977 75.9276 7 75.5582 6.15341C75.1946 5.30682 74.6804 4.66477 74.0156 4.22727C73.3509 3.78977 72.5724 3.57102 71.6804 3.57102C70.7884 3.57102 70.0099 3.78977 69.3452 4.22727C68.6804 4.66477 68.1634 5.30682 67.794 6.15341C67.4304 7 67.2486 8.03977 67.2486 9.27273C67.2486 10.5057 67.4304 11.5455 67.794 12.392C68.1634 13.2386 68.6804 13.8807 69.3452 14.3182C70.0099 14.7557 70.7884 14.9744 71.6804 14.9744C72.5724 14.9744 73.3509 14.7557 74.0156 14.3182C74.6804 13.8807 75.1946 13.2386 75.5582 12.392C75.9276 11.5455 76.1122 10.5057 76.1122 9.27273ZM97.1868 0.545454V18H93.9993L86.4055 7.0142H86.2777V18H82.5874V0.545454H85.826L93.3601 11.5227H93.5135V0.545454H97.1868Z" fill="#121F42"/>
</svg>
