<svg width="458" height="90" viewBox="0 0 458 90" fill="none" xmlns="http://www.w3.org/2000/svg">
<path d="M0.96 2V30H7.96V2H0.96ZM17.48 2L6 15.32L17.8 30H26L14.04 15.12L25.4 2H17.48ZM33.4088 30H47.5288V24.44H33.4088V30ZM33.4088 7.56H47.5288V2H33.4088V7.56ZM33.4088 18H46.7288V12.56H33.4088V18ZM28.9288 2V30H35.4088V2H28.9288ZM72.3503 2V17.76L53.0303 0.599999V30H59.5103V14.24L78.8703 31.4V2H72.3503ZM89.1881 24.6H103.988L103.548 19.44H89.6681L89.1881 24.6ZM96.5081 12.28L100.468 21.36L100.228 23.08L103.588 30H111.268L96.5081 0.239999L81.7881 30H89.4281L92.9081 22.8L92.5881 21.32L96.5081 12.28ZM114.202 2V30H120.962V2H114.202ZM118.442 7.56H123.922C125.282 7.56 126.349 7.86666 127.122 8.48C127.896 9.09333 128.282 9.98667 128.282 11.16C128.282 12.3067 127.896 13.1867 127.122 13.8C126.349 14.4133 125.282 14.72 123.922 14.72H118.442V20.28H123.922C126.296 20.28 128.282 19.92 129.882 19.2C131.509 18.4533 132.736 17.4 133.562 16.04C134.389 14.6533 134.802 13.0267 134.802 11.16C134.802 9.24 134.389 7.6 133.562 6.24C132.736 4.88 131.509 3.84 129.882 3.12C128.282 2.37333 126.296 2 123.922 2H118.442V7.56ZM140.712 24.6H155.512L155.072 19.44H141.192L140.712 24.6ZM148.032 12.28L151.992 21.36L151.752 23.08L155.112 30H162.792L148.032 0.239999L133.312 30H140.952L144.432 22.8L144.112 21.32L148.032 12.28ZM194.75 16.08H199.99C201.937 16.08 203.643 15.8133 205.11 15.28C206.603 14.72 207.777 13.92 208.63 12.88C209.51 11.84 209.95 10.5867 209.95 9.12C209.95 7.52 209.51 6.2 208.63 5.16C207.777 4.09333 206.603 3.30667 205.11 2.8C203.643 2.26667 201.937 2 199.99 2H189.71V30H200.67C202.883 30 204.803 29.7333 206.43 29.2C208.057 28.64 209.31 27.7867 210.19 26.64C211.097 25.4933 211.55 23.9867 211.55 22.12C211.55 20.7067 211.23 19.5067 210.59 18.52C209.977 17.5067 209.15 16.68 208.11 16.04C207.07 15.3733 205.91 14.8933 204.63 14.6C203.35 14.3067 202.03 14.16 200.67 14.16H194.75V17.84H199.91C200.577 17.84 201.177 17.9067 201.71 18.04C202.27 18.1467 202.763 18.3333 203.19 18.6C203.617 18.8667 203.95 19.2133 204.19 19.64C204.43 20.0667 204.55 20.5733 204.55 21.16C204.55 22.0667 204.337 22.7867 203.91 23.32C203.51 23.8267 202.963 24.2 202.27 24.44C201.577 24.6533 200.79 24.76 199.91 24.76H196.47V7.24H199.27C200.443 7.24 201.35 7.48 201.99 7.96C202.63 8.44 202.95 9.16 202.95 10.12C202.95 10.76 202.803 11.3067 202.51 11.76C202.217 12.1867 201.79 12.52 201.23 12.76C200.697 13 200.043 13.12 199.27 13.12H194.75V16.08ZM216.073 2V20.8C216.073 22.56 216.353 24.0933 216.913 25.4C217.499 26.7067 218.299 27.7867 219.313 28.64C220.353 29.4667 221.553 30.0933 222.913 30.52C224.273 30.9467 225.739 31.16 227.313 31.16C228.886 31.16 230.353 30.9467 231.713 30.52C233.099 30.0933 234.299 29.4667 235.313 28.64C236.353 27.7867 237.153 26.7067 237.713 25.4C238.299 24.0933 238.593 22.56 238.593 20.8V2H231.833V20.32C231.833 21.7333 231.459 22.88 230.713 23.76C229.966 24.64 228.833 25.08 227.313 25.08C225.819 25.08 224.699 24.64 223.953 23.76C223.206 22.88 222.833 21.7333 222.833 20.32V2H216.073ZM244.319 2V30H262.319V24.2H251.079V2H244.319ZM265.452 2V30H283.452V24.2H272.212V2H265.452ZM299.493 2L294.013 12.52L288.533 2H280.772L290.573 18.64V30H297.453V18.6L307.253 2H299.493ZM324.051 18.28H345.251V12.2H324.051V18.28ZM340.971 2V30H347.731V2H340.971ZM322.171 2V30H328.931V2H322.171ZM358.016 24.6H372.816L372.376 19.44H358.496L358.016 24.6ZM365.336 12.28L369.296 21.36L369.056 23.08L372.416 30H380.096L365.336 0.239999L350.616 30H358.256L361.736 22.8L361.416 21.32L365.336 12.28ZM390.03 17.32L397.87 30H405.79L397.03 17.32H390.03ZM383.03 2V30H389.79V2H383.03ZM387.27 7.72H392.75C393.657 7.72 394.43 7.86667 395.07 8.16C395.737 8.45333 396.244 8.88 396.59 9.44C396.937 9.97333 397.11 10.6267 397.11 11.4C397.11 12.1733 396.937 12.84 396.59 13.4C396.244 13.9333 395.737 14.3467 395.07 14.64C394.43 14.9067 393.657 15.04 392.75 15.04H387.27V20.28H393.23C395.63 20.28 397.63 19.8933 399.23 19.12C400.83 18.3467 402.044 17.28 402.87 15.92C403.697 14.5333 404.11 12.9467 404.11 11.16C404.11 9.34667 403.697 7.76 402.87 6.4C402.044 5.01333 400.83 3.93333 399.23 3.16C397.63 2.38667 395.63 2 393.23 2H387.27V7.72ZM408.729 2V20.8C408.729 22.56 409.009 24.0933 409.569 25.4C410.155 26.7067 410.955 27.7867 411.969 28.64C413.009 29.4667 414.209 30.0933 415.569 30.52C416.929 30.9467 418.395 31.16 419.969 31.16C421.542 31.16 423.009 30.9467 424.369 30.52C425.755 30.0933 426.955 29.4667 427.969 28.64C429.009 27.7867 429.809 26.7067 430.369 25.4C430.955 24.0933 431.249 22.56 431.249 20.8V2H424.489V20.32C424.489 21.7333 424.115 22.88 423.369 23.76C422.622 24.64 421.489 25.08 419.969 25.08C418.475 25.08 417.355 24.64 416.609 23.76C415.862 22.88 415.489 21.7333 415.489 20.32V2H408.729ZM440.056 20.16L435.336 23.56C435.976 24.8933 436.869 26.12 438.016 27.24C439.162 28.36 440.509 29.2533 442.056 29.92C443.629 30.56 445.322 30.88 447.136 30.88C448.442 30.88 449.709 30.68 450.936 30.28C452.189 29.9067 453.296 29.3467 454.256 28.6C455.242 27.8533 456.016 26.9333 456.576 25.84C457.162 24.72 457.456 23.4533 457.456 22.04C457.456 20.8667 457.269 19.8267 456.896 18.92C456.522 18.0133 456.002 17.2133 455.336 16.52C454.696 15.8267 453.949 15.24 453.096 14.76C452.242 14.2533 451.322 13.8133 450.336 13.44C449.029 12.9867 447.909 12.56 446.976 12.16C446.069 11.76 445.362 11.32 444.856 10.84C444.376 10.36 444.136 9.8 444.136 9.16C444.136 8.54667 444.389 8.04 444.896 7.64C445.402 7.21333 446.136 7 447.096 7C447.816 7 448.482 7.14667 449.096 7.44C449.736 7.70667 450.309 8.09333 450.816 8.6C451.349 9.08 451.816 9.65333 452.216 10.32L457.376 7.44C456.896 6.48 456.202 5.53333 455.296 4.6C454.389 3.66667 453.242 2.89333 451.856 2.28C450.496 1.66667 448.882 1.36 447.016 1.36C445.202 1.36 443.549 1.68 442.056 2.32C440.589 2.93333 439.416 3.84 438.536 5.04C437.682 6.24 437.256 7.66666 437.256 9.32C437.256 10.7067 437.509 11.8933 438.016 12.88C438.522 13.84 439.162 14.6667 439.936 15.36C440.709 16.0267 441.522 16.5733 442.376 17C443.256 17.4267 444.029 17.76 444.696 18C446.056 18.5067 447.149 18.96 447.976 19.36C448.802 19.76 449.402 20.1867 449.776 20.64C450.149 21.0667 450.336 21.64 450.336 22.36C450.336 23.2133 450.016 23.8933 449.376 24.4C448.736 24.88 447.922 25.12 446.936 25.12C446.002 25.12 445.109 24.92 444.256 24.52C443.429 24.12 442.656 23.5467 441.936 22.8C441.242 22.0533 440.616 21.1733 440.056 20.16ZM0.96 60V88H7.92V60H0.96ZM10.96 88C14.0267 88 16.68 87.4267 18.92 86.28C21.16 85.1333 22.8933 83.52 24.12 81.44C25.3467 79.3333 25.96 76.8533 25.96 74C25.96 71.12 25.3467 68.64 24.12 66.56C22.8933 64.48 21.16 62.8667 18.92 61.72C16.68 60.5733 14.0267 60 10.96 60H5.44V66H10.72C11.7867 66 12.8133 66.1333 13.8 66.4C14.8133 66.6667 15.6933 67.1067 16.44 67.72C17.2133 68.3333 17.8267 69.16 18.28 70.2C18.7333 71.2133 18.96 72.48 18.96 74C18.96 75.52 18.7333 76.8 18.28 77.84C17.8267 78.8533 17.2133 79.6667 16.44 80.28C15.6933 80.8933 14.8133 81.3333 13.8 81.6C12.8133 81.8667 11.7867 82 10.72 82H5.44V88H10.96ZM30.2959 60V88H37.1759V60H30.2959ZM44.9884 76.28H66.1884V70.2H44.9884V76.28ZM61.9084 60V88H68.6684V60H61.9084ZM43.1084 60V88H49.8684V60H43.1084ZM79.0338 88H93.1538V82.44H79.0338V88ZM79.0338 65.56H93.1538V60H79.0338V65.56ZM79.0338 76H92.3538V70.56H79.0338V76ZM74.5538 60V88H81.0338V60H74.5538ZM117.975 60V75.76L98.6553 58.6V88H105.135V72.24L124.495 89.4V60H117.975ZM127.613 66.04H135.293V88H142.053V66.04H149.773V60H127.613V66.04ZM152.835 60V88H159.715V60H152.835ZM165.648 60V88H172.648V60H165.648ZM182.168 60L170.688 73.32L182.488 88H190.688L178.728 73.12L190.088 60H182.168ZM198.016 82.6H212.816L212.376 77.44H198.496L198.016 82.6ZM205.336 70.28L209.296 79.36L209.056 81.08L212.416 88H220.096L205.336 58.24L190.616 88H198.256L201.736 80.8L201.416 79.32L205.336 70.28ZM242.35 60V75.76L223.03 58.6V88H229.51V72.24L248.87 89.4V60H242.35ZM268.628 68C268.628 68.6933 268.375 69.4133 267.868 70.16C267.361 70.9067 266.588 71.5467 265.548 72.08C264.508 72.5867 263.188 72.84 261.588 72.84H260.308L261.108 79.96H265.988L266.148 76.6C267.588 76.36 268.961 75.88 270.268 75.16C271.575 74.4133 272.641 73.44 273.468 72.24C274.321 71.04 274.748 69.6267 274.748 68C274.748 66.6133 274.455 65.3867 273.868 64.32C273.308 63.2267 272.548 62.3067 271.588 61.56C270.628 60.7867 269.535 60.2133 268.308 59.84C267.108 59.44 265.855 59.24 264.548 59.24C262.975 59.24 261.548 59.4533 260.268 59.88C258.988 60.28 257.815 60.8667 256.748 61.64C255.681 62.4133 254.681 63.3467 253.748 64.44L257.828 67.8C258.575 66.68 259.508 65.8267 260.628 65.24C261.748 64.6533 262.921 64.36 264.148 64.36C265.081 64.36 265.881 64.5067 266.548 64.8C267.241 65.0667 267.761 65.48 268.108 66.04C268.455 66.5733 268.628 67.2267 268.628 68ZM259.788 85.64C259.788 86.5467 260.148 87.3333 260.868 88C261.588 88.64 262.495 88.96 263.588 88.96C264.681 88.96 265.575 88.64 266.268 88C266.988 87.3333 267.348 86.5467 267.348 85.64C267.348 84.76 266.988 83.9867 266.268 83.32C265.575 82.6533 264.681 82.32 263.588 82.32C262.495 82.32 261.588 82.6533 260.868 83.32C260.148 83.9867 259.788 84.76 259.788 85.64Z" fill="#121F42"/>
</svg>
