<svg width="557" height="51" viewBox="0 0 557 51" fill="none" xmlns="http://www.w3.org/2000/svg">
<path d="M7.664 32.256L0.112 37.696C1.136 39.8293 2.56533 41.792 4.4 43.584C6.23467 45.376 8.38933 46.8053 10.864 47.872C13.3813 48.896 16.0907 49.408 18.992 49.408C21.0827 49.408 23.1093 49.088 25.072 48.448C27.0773 47.8507 28.848 46.9547 30.384 45.76C31.9627 44.5653 33.2 43.0933 34.096 41.344C35.0347 39.552 35.504 37.5253 35.504 35.264C35.504 33.3867 35.2053 31.7227 34.608 30.272C34.0107 28.8213 33.1787 27.5413 32.112 26.432C31.088 25.3227 29.8933 24.384 28.528 23.616C27.1627 22.8053 25.6907 22.1013 24.112 21.504C22.0213 20.7787 20.2293 20.096 18.736 19.456C17.2853 18.816 16.1547 18.112 15.344 17.344C14.576 16.576 14.192 15.68 14.192 14.656C14.192 13.6747 14.5973 12.864 15.408 12.224C16.2187 11.5413 17.392 11.2 18.928 11.2C20.08 11.2 21.1467 11.4347 22.128 11.904C23.152 12.3307 24.0693 12.9493 24.88 13.76C25.7333 14.528 26.48 15.4453 27.12 16.512L35.376 11.904C34.608 10.368 33.4987 8.85333 32.048 7.36C30.5973 5.86666 28.7627 4.62933 26.544 3.648C24.368 2.66667 21.7867 2.176 18.8 2.176C15.8987 2.176 13.2533 2.688 10.864 3.712C8.51733 4.69333 6.64 6.144 5.232 8.064C3.86667 9.984 3.184 12.2667 3.184 14.912C3.184 17.1307 3.58933 19.0293 4.4 20.608C5.21067 22.144 6.23467 23.4667 7.472 24.576C8.70933 25.6427 10.0107 26.5173 11.376 27.2C12.784 27.8827 14.0213 28.416 15.088 28.8C17.264 29.6107 19.0133 30.336 20.336 30.976C21.6587 31.616 22.6187 32.2987 23.216 33.024C23.8133 33.7067 24.112 34.624 24.112 35.776C24.112 37.1413 23.6 38.2293 22.576 39.04C21.552 39.808 20.2507 40.192 18.672 40.192C17.1787 40.192 15.7493 39.872 14.384 39.232C13.0613 38.592 11.824 37.6747 10.672 36.48C9.56267 35.2853 8.56 33.8773 7.664 32.256ZM38.256 12.864H50.544V48H61.36V12.864H73.712V3.2H38.256V12.864ZM84.3195 25.6C84.3195 22.9547 84.8315 20.6293 85.8555 18.624C86.9222 16.576 88.3942 14.976 90.2715 13.824C92.1915 12.672 94.4315 12.096 96.9915 12.096C99.5942 12.096 101.834 12.672 103.712 13.824C105.589 14.976 107.04 16.576 108.064 18.624C109.088 20.6293 109.6 22.9547 109.6 25.6C109.6 28.2453 109.066 30.592 108 32.64C106.976 34.6453 105.504 36.224 103.583 37.376C101.706 38.528 99.5088 39.104 96.9915 39.104C94.4315 39.104 92.1915 38.528 90.2715 37.376C88.3942 36.224 86.9222 34.6453 85.8555 32.64C84.8315 30.592 84.3195 28.2453 84.3195 25.6ZM72.8635 25.6C72.8635 29.056 73.4395 32.2347 74.5915 35.136C75.7862 38.0373 77.4502 40.5547 79.5835 42.688C81.7595 44.8213 84.3195 46.4853 87.2635 47.68C90.2075 48.832 93.4502 49.408 96.9915 49.408C100.49 49.408 103.712 48.832 106.656 47.68C109.6 46.4853 112.138 44.8213 114.272 42.688C116.448 40.5547 118.112 38.0373 119.264 35.136C120.458 32.2347 121.056 29.056 121.056 25.6C121.056 22.144 120.458 18.9867 119.264 16.128C118.069 13.2693 116.384 10.7947 114.208 8.704C112.032 6.61333 109.472 5.01333 106.528 3.904C103.626 2.752 100.448 2.176 96.9915 2.176C93.5782 2.176 90.3995 2.752 87.4555 3.904C84.5115 5.01333 81.9515 6.61333 79.7755 8.704C77.5995 10.7947 75.8928 13.2693 74.6555 16.128C73.4608 18.9867 72.8635 22.144 72.8635 25.6ZM127.986 3.2V48H138.802V3.2H127.986ZM134.77 12.096H143.538C145.714 12.096 147.421 12.5867 148.658 13.568C149.895 14.5493 150.514 15.9787 150.514 17.856C150.514 19.6907 149.895 21.0987 148.658 22.08C147.421 23.0613 145.714 23.552 143.538 23.552H134.77V32.448H143.538C147.335 32.448 150.514 31.872 153.074 30.72C155.677 29.5253 157.639 27.84 158.962 25.664C160.285 23.4453 160.946 20.8427 160.946 17.856C160.946 14.784 160.285 12.16 158.962 9.984C157.639 7.808 155.677 6.144 153.074 4.992C150.514 3.79733 147.335 3.2 143.538 3.2H134.77V12.096ZM195.113 25.728H203.497C206.611 25.728 209.342 25.3013 211.689 24.448C214.078 23.552 215.955 22.272 217.321 20.608C218.729 18.944 219.433 16.9387 219.433 14.592C219.433 12.032 218.729 9.92 217.321 8.256C215.955 6.54933 214.078 5.29067 211.689 4.48C209.342 3.62666 206.611 3.2 203.497 3.2H187.049V48H204.585C208.126 48 211.198 47.5733 213.801 46.72C216.403 45.824 218.409 44.4587 219.817 42.624C221.267 40.7893 221.993 38.3787 221.993 35.392C221.993 33.1307 221.481 31.2107 220.457 29.632C219.475 28.0107 218.153 26.688 216.489 25.664C214.825 24.5973 212.969 23.8293 210.921 23.36C208.873 22.8907 206.761 22.656 204.585 22.656H195.113V28.544H203.369C204.435 28.544 205.395 28.6507 206.249 28.864C207.145 29.0347 207.934 29.3333 208.617 29.76C209.299 30.1867 209.833 30.7413 210.217 31.424C210.601 32.1067 210.793 32.9173 210.793 33.856C210.793 35.3067 210.451 36.4587 209.769 37.312C209.129 38.1227 208.254 38.72 207.145 39.104C206.035 39.4453 204.777 39.616 203.369 39.616H197.865V11.584H202.345C204.222 11.584 205.673 11.968 206.697 12.736C207.721 13.504 208.233 14.656 208.233 16.192C208.233 17.216 207.998 18.0907 207.529 18.816C207.059 19.4987 206.377 20.032 205.481 20.416C204.627 20.8 203.582 20.992 202.345 20.992H195.113V25.728ZM229.229 3.2V33.28C229.229 36.096 229.677 38.5493 230.573 40.64C231.511 42.7307 232.791 44.4587 234.413 45.824C236.077 47.1467 237.997 48.1493 240.173 48.832C242.349 49.5147 244.695 49.856 247.213 49.856C249.73 49.856 252.077 49.5147 254.253 48.832C256.471 48.1493 258.391 47.1467 260.013 45.824C261.677 44.4587 262.957 42.7307 263.853 40.64C264.791 38.5493 265.261 36.096 265.261 33.28V3.2H254.445V32.512C254.445 34.7733 253.847 36.608 252.653 38.016C251.458 39.424 249.645 40.128 247.213 40.128C244.823 40.128 243.031 39.424 241.837 38.016C240.642 36.608 240.045 34.7733 240.045 32.512V3.2H229.229ZM274.424 3.2V48H303.224V38.72H285.24V3.2H274.424ZM308.236 3.2V48H337.036V38.72H319.052V3.2H308.236ZM362.701 3.2L353.933 20.032L345.165 3.2H332.748L348.429 29.824V48H359.437V29.76L375.117 3.2H362.701ZM379.799 3.2V48H390.807V3.2H379.799ZM431.211 3.2V28.416L400.299 0.959999V48H410.667V22.784L441.643 50.24V3.2H431.211ZM473.319 31.808H485.223C484.839 32.96 484.306 34.048 483.623 35.072C482.983 36.0533 482.194 36.928 481.255 37.696C480.316 38.4213 479.186 38.9973 477.863 39.424C476.54 39.808 475.068 40 473.447 40C470.802 40 468.455 39.424 466.407 38.272C464.402 37.0773 462.802 35.4133 461.607 33.28C460.455 31.104 459.879 28.544 459.879 25.6C459.879 22.6133 460.476 20.096 461.671 18.048C462.908 15.9573 464.551 14.3573 466.599 13.248C468.69 12.1387 470.972 11.584 473.447 11.584C476.05 11.584 478.204 12.1813 479.911 13.376C481.66 14.528 483.047 16 484.071 17.792L493.671 12.8C492.263 10.7093 490.578 8.87466 488.615 7.296C486.695 5.67466 484.476 4.416 481.959 3.52C479.442 2.624 476.604 2.176 473.447 2.176C469.906 2.176 466.62 2.73066 463.591 3.84C460.562 4.94933 457.916 6.528 455.655 8.576C453.394 10.624 451.644 13.0987 450.407 16C449.17 18.8587 448.551 22.0587 448.551 25.6C448.551 29.1413 449.148 32.384 450.343 35.328C451.58 38.2293 453.287 40.7467 455.463 42.88C457.639 44.9707 460.22 46.592 463.207 47.744C466.194 48.8533 469.479 49.408 473.063 49.408C476.86 49.408 480.231 48.7467 483.175 47.424C486.119 46.0587 488.572 44.1813 490.535 41.792C492.498 39.4027 493.948 36.6507 494.887 33.536C495.826 30.4213 496.188 27.072 495.975 23.488H473.319V31.808ZM522.68 3.2L524.792 33.216H532.6L534.648 3.2H522.68ZM522.68 44.032C522.68 45.6533 523.234 46.976 524.344 48C525.496 49.024 526.946 49.536 528.696 49.536C530.445 49.536 531.874 49.024 532.984 48C534.136 46.976 534.712 45.6533 534.712 44.032C534.712 42.4107 534.136 41.088 532.984 40.064C531.874 39.04 530.445 38.528 528.696 38.528C526.946 38.528 525.496 39.04 524.344 40.064C523.234 41.088 522.68 42.4107 522.68 44.032ZM544.68 3.2L546.792 33.216H554.6L556.648 3.2H544.68ZM544.68 44.032C544.68 45.6533 545.234 46.976 546.344 48C547.496 49.024 548.946 49.536 550.696 49.536C552.445 49.536 553.874 49.024 554.984 48C556.136 46.976 556.712 45.6533 556.712 44.032C556.712 42.4107 556.136 41.088 554.984 40.064C553.874 39.04 552.445 38.528 550.696 38.528C548.946 38.528 547.496 39.04 546.344 40.064C545.234 41.088 544.68 42.4107 544.68 44.032Z" fill="#121F42"/>
</svg>
